<?xml version="1.0" standalone="no"?>
<!DOCTYPE svg PUBLIC "-//W3C//DTD SVG 20010904//EN">
<svg version="1.0" xmlns="http://www.w3.org/2000/svg"
 width="976.000000pt" height="976.000000pt" viewBox="0 0 976.000000 976.000000"
 preserveAspectRatio="xMidYMid meet">
<metadata>
Created by potrace 1.14, written by Peter Selinger 2001-2017
</metadata>
<g transform="translate(0.000000,976.000000) scale(0.100000,-0.100000)"
fill="#000000" stroke="none">
<path d="M3270 6482 c-6 -2 -10 -128 -10 -350 l0 -347 27 40 c33 49 64 85 126
147 55 54 127 113 127 103 0 -3 12 2 28 13 52 35 148 71 242 90 68 13 272 7
340 -11 79 -21 176 -66 250 -115 74 -49 179 -156 218 -223 22 -37 32 -48 33
-34 5 75 3 668 -2 677 -4 6 -146 9 -420 9 -228 -1 -423 -2 -434 -2 -11 1 -131
2 -267 3 -137 2 -252 2 -258 0z"/>
<path d="M4252 5764 c-127 -39 -378 -160 -422 -204 -31 -32 -33 -40 -32 -122
2 -97 32 -145 118 -187 42 -21 125 -22 176 -3 24 10 83 72 83 89 1 5 6 18 13
30 26 46 101 245 118 312 16 62 17 73 4 84 -13 12 -22 12 -58 1z"/>
<path d="M3662 5499 c-59 -35 -80 -68 -142 -226 -69 -173 -81 -222 -57 -242
38 -31 66 3 196 232 70 123 73 130 68 179 -8 70 -23 83 -65 57z"/>
<path d="M3754 5443 c-8 -50 -69 -171 -167 -337 -48 -80 -52 -97 -31 -113 13
-9 24 -8 53 5 20 9 43 22 51 28 28 22 255 135 295 146 22 6 49 18 60 25 19 13
19 13 -5 14 -72 2 -113 16 -158 54 -52 44 -73 90 -75 168 -2 56 -14 62 -23 10z"/>
<path d="M3935 5147 c-40 -12 -136 -59 -210 -101 -33 -20 -73 -43 -90 -52 -41
-22 -75 -55 -75 -71 0 -7 5 -21 11 -31 11 -18 40 -20 79 -5 8 4 17 7 20 8 3 1
14 5 25 10 22 8 97 36 212 80 53 19 81 37 103 63 31 37 47 78 37 89 -13 12
-84 19 -112 10z"/>
<path d="M3260 4108 l0 -907 50 2 c28 0 50 6 51 12 4 56 3 85 -3 85 -3 0 -4 8
-2 18 8 30 9 182 2 182 -4 0 -5 6 -2 14 8 20 10 106 2 106 -3 0 -4 8 -2 18 3
9 6 69 7 132 l2 115 65 0 65 0 2 -285 c2 -157 4 -310 5 -340 l3 -55 113 -1
112 -2 1 67 c0 36 0 189 0 339 0 149 3 273 7 273 4 1 50 3 102 4 109 2 91 14
205 -130 44 -55 85 -105 90 -111 6 -6 24 -28 40 -48 17 -21 40 -50 53 -65 12
-14 53 -65 90 -113 37 -48 70 -87 74 -87 4 -1 8 25 8 57 0 31 1 156 3 277 l2
219 68 2 c37 1 68 -1 68 -5 1 -3 2 -157 3 -341 l1 -334 55 -2 55 -2 0 904 c0
497 -3 904 -6 904 -3 0 -22 -24 -42 -52 -31 -45 -99 -119 -157 -170 -38 -34
-136 -91 -209 -123 -45 -19 -81 -33 -81 -31 0 2 -17 0 -37 -6 -89 -22 -284
-15 -398 15 -144 37 -309 158 -415 303 l-50 69 0 -907z"/>
<path d="M239 4576 c-3 -143 1 -477 6 -485 3 -6 3 -11 -2 -11 -4 0 -7 -26 -6
-57 1 -32 2 -72 2 -89 l1 -30 65 -1 65 -1 0 124 c0 122 0 124 23 125 12 0 126
2 252 4 227 3 231 4 277 30 92 51 115 100 106 225 -5 64 -8 71 -44 106 -77 73
-88 75 -435 79 l-309 3 -1 -22z m613 -124 c50 -29 60 -109 17 -148 -25 -23
-73 -27 -299 -28 l-195 -1 -1 90 c0 50 1 94 4 98 2 4 103 7 225 7 186 -1 226
-4 249 -18z"/>
<path d="M1114 4591 c-21 -6 -19 -13 57 -241 43 -129 79 -237 80 -240 1 -3 5
-14 9 -25 4 -11 18 -53 31 -94 27 -83 33 -88 125 -90 58 -1 62 0 73 26 10 25
86 283 96 326 14 59 60 207 65 207 3 0 39 -116 79 -257 40 -142 77 -268 82
-279 7 -20 14 -21 84 -19 42 2 80 7 85 11 11 12 230 667 225 672 -2 3 -34 5
-71 6 l-66 1 -12 -40 c-39 -126 -59 -190 -61 -204 -2 -9 -4 -16 -5 -16 -1 0
-3 -7 -5 -15 -2 -8 -15 -55 -30 -105 -15 -49 -28 -97 -30 -105 -5 -24 -24 -70
-29 -70 -4 0 -17 41 -68 215 -11 39 -23 77 -26 85 -3 8 -7 24 -9 35 -2 11 -8
31 -13 45 -6 14 -12 34 -14 45 -3 11 -11 41 -19 67 -8 26 -12 49 -9 52 6 6 -6
7 -93 7 -30 0 -59 0 -65 0 -10 -1 -37 -88 -115 -361 -26 -91 -51 -172 -56
-180 -9 -17 -6 -22 -32 60 -12 36 -28 89 -42 140 -1 3 -8 25 -15 50 -7 25 -14
47 -15 50 0 3 -4 16 -8 30 -4 14 -13 43 -19 65 -5 22 -13 47 -16 55 -3 8 -6
21 -8 29 -10 52 -16 61 -37 62 -12 1 -35 2 -52 3 -16 1 -40 0 -51 -3z"/>
<path d="M2365 4594 c-8 -3 -12 -485 -6 -666 1 -26 2 -27 65 -26 l64 1 -1 119
c0 75 4 122 10 126 9 6 251 8 325 3 10 -1 29 -18 43 -38 13 -21 52 -76 85
-123 l60 -85 58 -2 c94 -3 98 1 59 55 -72 98 -127 184 -127 196 0 6 15 17 33
24 37 13 77 53 102 102 17 33 19 119 3 177 -14 51 -93 114 -163 129 -26 6
-597 13 -610 8z m616 -153 c51 -47 45 -111 -14 -146 -27 -16 -57 -19 -246 -20
-119 -1 -220 0 -226 2 -6 2 -9 41 -7 99 l3 95 231 -2 230 -1 29 -27z"/>
<path d="M5030 4029 c-83 -12 -153 -39 -212 -80 -66 -47 -91 -171 -49 -245 44
-78 132 -107 401 -130 213 -18 266 -28 294 -57 55 -55 35 -131 -46 -177 -45
-25 -146 -38 -266 -33 -99 4 -166 20 -282 67 -92 38 -95 38 -131 -21 -21 -33
-21 -35 -3 -48 24 -18 140 -75 162 -80 10 -2 46 -10 82 -18 70 -16 106 -19
215 -20 247 -2 406 75 442 213 17 66 -2 144 -45 192 -25 27 -105 67 -151 74
-14 2 -37 7 -51 9 -55 11 -68 13 -145 20 -141 12 -230 22 -230 25 0 1 -12 3
-26 5 -41 5 -89 34 -98 58 -14 38 6 72 62 103 49 27 57 28 187 27 140 0 210
-14 325 -63 l44 -19 36 34 c19 19 35 41 35 50 0 23 -129 83 -215 100 -80 15
-267 23 -335 14z"/>
<path d="M8137 3914 c-1 -1 -29 -4 -62 -8 -83 -8 -122 -19 -180 -50 -62 -33
-155 -120 -155 -146 0 -5 -5 -10 -12 -10 -6 0 -9 -3 -6 -6 4 -3 0 -21 -8 -39
-22 -54 -13 -200 17 -253 29 -53 90 -117 133 -139 17 -9 33 -19 36 -23 3 -4
34 -17 70 -28 86 -26 297 -25 375 2 66 24 154 78 187 115 l27 29 -54 28 -53
28 -39 -26 c-116 -81 -237 -101 -388 -65 -37 9 -99 48 -131 82 -86 91 -72 237
30 319 37 30 63 44 91 47 6 0 18 5 27 10 17 9 156 13 203 6 42 -6 102 -31 151
-63 54 -36 73 -36 138 -2 26 14 26 14 7 33 -88 92 -217 151 -344 158 -32 1
-59 2 -60 1z"/>
<path d="M5855 3892 c-20 -3 -20 -10 -19 -343 1 -187 4 -342 7 -345 6 -7 115
-9 122 -3 2 3 5 61 7 129 l3 124 105 3 c193 4 395 12 410 16 47 10 85 42 125
102 24 37 25 143 2 195 -20 47 -79 97 -128 110 -35 10 -580 20 -634 12z m430
-122 c147 -2 184 -11 205 -49 18 -34 11 -75 -18 -108 l-29 -32 -236 0 -237 -1
0 94 c0 109 -7 102 110 99 36 -1 128 -2 205 -3z"/>
<path d="M7061 3890 c-10 -7 -45 -68 -109 -190 -30 -58 -58 -107 -61 -110 -3
-3 -22 -36 -42 -75 -19 -38 -63 -121 -98 -184 -35 -65 -58 -118 -53 -123 4 -4
35 -9 68 -11 l59 -2 29 55 c58 112 24 101 289 97 l231 -3 38 -64 c20 -36 38
-69 40 -74 4 -9 127 -10 136 -1 4 4 -62 140 -118 240 -15 28 -46 84 -68 125
-22 41 -63 117 -91 169 -28 52 -51 97 -51 100 0 3 -9 17 -19 30 -16 21 -26 24
-96 25 -42 1 -80 -1 -84 -4z m109 -162 c0 -4 13 -29 29 -55 39 -66 101 -183
101 -192 0 -11 -282 -12 -300 -1 -16 10 -9 25 76 180 62 113 63 115 79 93 8
-10 15 -21 15 -25z"/>
<path d="M8767 3888 c-7 -4 -11 -117 -11 -347 l-1 -341 25 -1 c14 0 180 -1
370 -1 l345 -1 3 62 c3 58 2 61 -20 61 -13 1 -147 2 -298 4 -151 2 -278 4
-282 5 -5 0 -8 39 -8 86 l0 85 205 0 206 0 -3 62 -3 61 -202 0 -203 -1 0 74 0
74 163 1 c89 0 220 1 291 2 129 2 130 2 136 27 3 14 3 41 0 60 l-5 35 -348 0
c-192 0 -354 -3 -360 -7z"/>
<path d="M3878 3747 c-2 -6 -4 -131 -4 -277 l1 -265 135 -2 c152 -3 138 -3
243 -1 42 1 77 3 77 5 0 4 -78 101 -90 113 -3 3 -29 34 -58 70 -28 36 -58 72
-65 80 -7 8 -31 38 -53 65 -21 28 -41 52 -45 55 -3 3 -35 42 -71 87 -36 46
-68 77 -70 70z"/>
</g>
</svg>
