<?xml version="1.0" standalone="no"?>
<!DOCTYPE svg PUBLIC "-//W3C//DTD SVG 20010904//EN"
 "http://www.w3.org/TR/2001/REC-SVG-20010904/DTD/svg10.dtd">
<svg version="1.0" xmlns="http://www.w3.org/2000/svg"
 width="1056.000000pt" height="1056.000000pt" viewBox="0 0 1056.000000 1056.000000"
 preserveAspectRatio="xMidYMid meet">
<metadata>
Created by potrace 1.14, written by Peter Selinger 2001-2017
</metadata>
<g transform="translate(0.000000,1056.000000) scale(0.100000,-0.100000)"
fill="#000000" stroke="none">
<path d="M3693 6882 l-33 -3 0 -346 0 -345 43 58 c134 182 292 286 502 331 41
9 239 9 295 0 137 -21 322 -120 423 -227 26 -28 66 -78 87 -112 22 -34 40 -57
41 -52 1 5 2 161 3 348 1 241 -2 340 -10 343 -19 7 -154 8 -154 1 0 -4 -6 -5
-14 -2 -21 8 -106 10 -106 2 0 -4 -7 -5 -15 -2 -21 9 -825 10 -825 2 0 -3 -12
-3 -27 1 -16 4 -45 4 -65 1 -21 -4 -38 -5 -38 -1 0 6 -54 8 -107 3z"/>
<path d="M4695 6175 c-143 -38 -444 -180 -478 -227 -15 -20 -19 -42 -19 -95 0
-87 2 -93 35 -137 58 -76 175 -103 266 -62 39 18 46 28 93 125 28 58 51 110
53 116 1 5 5 17 8 25 22 50 59 171 63 206 6 40 0 54 -21 49z"/>
<path d="M4081 5912 c-15 -5 -42 -26 -76 -59 -13 -12 -51 -93 -85 -180 -59
-149 -84 -242 -64 -244 5 0 17 -2 28 -4 10 -2 28 7 40 20 18 19 92 138 132
210 25 45 55 98 69 119 8 12 13 25 11 27 -3 2 -7 24 -10 48 -6 48 -23 72 -45
63z"/>
<path d="M4162 5865 c-7 -14 -12 -36 -12 -48 -1 -12 -19 -53 -41 -92 -21 -38
-47 -87 -55 -107 -9 -21 -20 -38 -25 -38 -5 0 -9 -5 -9 -10 0 -6 -16 -35 -35
-65 -42 -66 -50 -101 -27 -114 13 -7 43 5 122 46 58 31 114 62 125 69 23 17
35 18 35 3 0 -5 -4 -8 -9 -4 -5 3 -12 1 -16 -4 -3 -6 -40 -29 -83 -52 -129
-70 -162 -93 -168 -117 -5 -16 -1 -30 12 -42 18 -18 21 -18 89 5 86 29 236 86
291 110 41 18 94 85 94 118 0 32 -92 39 -158 11 -19 -8 -37 -12 -40 -9 -5 5
83 45 101 45 20 1 83 39 67 40 -90 7 -147 29 -187 72 -35 37 -61 109 -58 161
1 26 1 47 0 47 -1 0 -7 -11 -13 -25z"/>
<path d="M5007 5358 c-39 -54 -103 -124 -157 -170 -56 -48 -184 -121 -194
-111 -3 3 -6 1 -6 -5 0 -7 -8 -12 -18 -12 -10 0 -22 -4 -28 -10 -5 -5 -27 -12
-49 -16 -22 -3 -44 -8 -49 -11 -4 -3 -56 -7 -115 -8 -290 -7 -508 98 -679 329
l-52 68 -2 -463 c-2 -255 -2 -663 0 -906 l2 -443 51 3 51 2 2 340 1 340 68 0
68 0 0 -85 c-1 -47 -1 -114 -2 -150 -1 -36 -1 -72 0 -80 0 -8 0 -44 0 -80 -1
-36 -1 -72 0 -80 0 -8 0 -58 0 -111 l0 -96 116 0 115 0 1 36 c0 20 1 173 2
341 l2 304 103 1 102 1 93 -116 c50 -63 97 -120 102 -126 6 -6 24 -28 40 -48
17 -21 39 -49 50 -62 11 -13 52 -64 90 -113 39 -49 73 -90 77 -90 4 -1 8 29 8
67 0 37 2 161 3 277 l2 210 68 1 c41 0 67 -4 68 -10 1 -6 2 -159 3 -341 l1
-330 55 0 55 0 0 908 c0 499 -1 907 -2 907 -1 0 -21 -28 -46 -62z"/>
<path d="M639 4981 c0 -9 -1 -37 -2 -64 -1 -26 2 -47 6 -47 5 0 5 -4 2 -10 -4
-7 -9 -458 -6 -541 1 -12 15 -15 66 -16 l65 -1 0 124 c0 111 2 124 18 125 9 0
124 2 254 4 l238 2 52 34 c73 48 91 77 96 154 6 90 -3 127 -41 168 -37 39 -76
61 -125 72 -19 4 -166 8 -328 10 -267 3 -294 1 -295 -14z m592 -121 c46 -13
67 -44 64 -95 -2 -28 -9 -44 -29 -60 -33 -26 -35 -26 -291 -28 l-200 -2 -1 85
c0 47 1 91 4 98 5 15 398 17 453 2z"/>
<path d="M1514 4990 c-22 -5 -22 -5 12 -105 19 -55 36 -109 39 -120 8 -34 144
-429 153 -445 12 -19 152 -26 164 -7 7 10 24 63 34 102 29 118 130 443 136
437 5 -5 43 -129 86 -278 l77 -269 78 1 c43 0 82 5 86 10 12 12 232 667 226
672 -2 3 -34 5 -71 6 -64 1 -68 0 -75 -24 -13 -41 -60 -204 -64 -220 -2 -8
-20 -69 -40 -135 -20 -66 -40 -131 -44 -145 -8 -28 -23 -33 -27 -10 -1 8 -16
62 -34 120 -17 58 -40 137 -51 175 -66 227 -69 235 -92 236 -58 2 -128 0 -136
-5 -5 -3 -12 -20 -16 -38 -4 -18 -9 -37 -11 -43 -1 -5 -14 -50 -29 -100 -14
-49 -33 -112 -41 -140 -8 -27 -16 -57 -19 -65 -48 -166 -51 -174 -61 -144 -3
10 -12 36 -20 57 -8 20 -12 37 -9 37 2 0 -2 15 -10 33 -7 17 -14 35 -14 40 -1
4 -1 8 -2 10 0 1 -2 9 -4 17 -6 23 -23 80 -39 135 -9 28 -24 83 -36 124 -11
41 -22 76 -25 79 -7 7 -96 9 -121 2z"/>
<path d="M2757 4991 c-2 -5 -1 -630 2 -673 1 -15 10 -17 64 -15 l62 2 1 118
c0 74 5 121 11 125 9 6 304 8 335 3 3 -1 39 -49 80 -107 101 -148 96 -143 165
-140 32 2 64 4 71 5 9 1 2 18 -21 49 -73 100 -127 184 -127 197 0 7 11 16 24
19 68 17 126 104 126 188 0 80 -16 122 -60 162 -73 66 -81 67 -423 71 -169 1
-308 0 -310 -4z m629 -152 c48 -48 34 -124 -27 -149 -22 -10 -95 -14 -250 -15
-191 -1 -219 1 -220 15 -2 46 3 165 8 173 3 4 108 7 234 5 l229 -3 26 -26z"/>
<path d="M5445 4429 c-173 -18 -283 -96 -298 -212 -7 -51 10 -109 40 -141 26
-28 94 -62 141 -71 15 -3 36 -7 47 -9 23 -4 113 -14 195 -21 184 -16 220 -22
262 -39 63 -27 82 -95 41 -150 -42 -57 -133 -84 -273 -80 -135 4 -195 14 -271
44 -27 11 -71 29 -99 40 l-50 20 -30 -42 c-16 -22 -30 -44 -30 -47 0 -14 140
-88 179 -96 9 -2 34 -8 56 -14 149 -40 387 -31 517 18 201 77 234 318 56 405
-45 22 -167 52 -218 54 -8 0 -40 3 -70 6 -30 4 -81 8 -112 11 -125 10 -193 29
-223 61 -42 46 -4 111 80 135 88 26 360 10 403 -24 6 -5 12 -7 12 -3 0 3 26
-6 57 -19 l56 -25 38 42 39 43 -25 20 c-28 24 -143 70 -195 79 -88 16 -249 23
-325 15z"/>
<path d="M8537 4314 c-1 -1 -32 -5 -70 -8 -148 -13 -277 -95 -339 -216 -33
-65 -36 -200 -5 -270 41 -92 131 -168 246 -207 58 -19 82 -22 191 -19 69 2
138 7 154 10 56 13 159 69 203 111 l44 42 -38 19 c-21 10 -40 22 -43 25 -9 11
-49 3 -67 -13 -31 -26 -126 -67 -179 -76 -257 -45 -460 128 -379 322 28 67 99
127 169 142 82 19 161 22 231 9 42 -7 122 -45 166 -77 26 -20 28 -20 76 -3 26
10 52 21 56 25 14 12 -91 97 -163 134 -43 21 -91 37 -129 41 -73 8 -121 12
-124 9z"/>
<path d="M6258 4292 c-10 -2 -18 -9 -19 -15 0 -7 -1 -162 -2 -345 -2 -326 -2
-332 18 -333 38 -2 107 0 111 3 2 2 4 59 6 126 1 73 6 123 13 125 5 2 75 4
155 5 255 4 348 10 383 28 91 47 132 141 107 246 -16 65 -78 132 -137 147 -39
11 -591 21 -635 13z m449 -122 c99 -2 127 -6 152 -21 51 -31 54 -91 7 -142
l-24 -26 -236 0 -236 1 0 93 0 94 43 3 c23 2 71 2 107 1 36 -1 120 -2 187 -3z"/>
<path d="M7448 4276 c-10 -11 -18 -25 -18 -32 0 -7 -6 -19 -13 -26 -6 -7 -24
-38 -39 -68 -15 -30 -45 -86 -66 -125 -105 -189 -211 -388 -217 -405 -7 -21
-5 -22 50 -22 84 0 81 -1 111 60 16 31 32 59 37 60 4 2 7 10 7 18 0 12 36 14
239 12 l239 -3 40 -75 c39 -74 40 -74 78 -72 22 1 51 2 67 3 15 0 27 4 27 9 0
14 -71 150 -81 156 -5 3 -9 14 -9 24 0 10 -4 20 -8 22 -5 2 -42 66 -82 143
-40 77 -76 145 -80 150 -4 6 -24 42 -43 80 -57 111 -53 108 -142 109 -66 1
-82 -2 -97 -18z m154 -206 c68 -124 97 -183 93 -190 -3 -4 -72 -8 -155 -8
-124 1 -150 3 -150 15 0 15 58 126 117 226 40 66 33 69 95 -43z"/>
<path d="M9167 4288 c-8 -5 -13 -385 -8 -658 l1 -35 365 1 c201 1 368 4 372 7
6 7 6 108 -1 114 -2 3 -136 6 -298 8 -161 1 -295 3 -298 4 -4 0 -7 39 -8 86
l-3 85 206 0 205 0 0 60 c0 41 -4 60 -12 61 -7 0 -100 1 -205 0 l-193 0 0 75
c0 64 2 74 18 74 9 1 141 2 292 3 l274 2 6 25 c3 14 3 41 0 59 l-5 35 -349 0
c-191 1 -353 -2 -359 -6z"/>
<path d="M4278 4142 c-3 -9 -4 -134 -4 -277 l1 -260 228 -1 c125 -1 227 0 227
2 0 3 -189 236 -317 391 -19 23 -56 69 -83 102 -36 46 -49 56 -52 43z"/>
</g>
</svg>
