<?xml version="1.0" standalone="no"?>
<!DOCTYPE svg PUBLIC "-//W3C//DTD SVG 20010904//EN"
 "http://www.w3.org/TR/2001/REC-SVG-20010904/DTD/svg10.dtd">
<svg version="1.0" xmlns="http://www.w3.org/2000/svg"
 width="1856.000000pt" height="1856.000000pt" viewBox="0 0 1856.000000 1856.000000"
 preserveAspectRatio="xMidYMid meet">
<metadata>
Created by potrace 1.14, written by Peter Selinger 2001-2017
</metadata>
<g transform="translate(0.000000,1856.000000) scale(0.100000,-0.100000)"
fill="#000000" stroke="none">
<path d="M6039 12598 c4 -24 4 -56 1 -73 -3 -16 -3 -49 1 -72 3 -24 2 -43 -3
-43 -5 0 -7 -9 -3 -20 3 -10 6 -41 5 -67 0 -26 -1 -56 -1 -65 1 -24 0 -63 0
-90 -1 -29 0 -131 1 -182 1 -22 3 -43 6 -47 2 -4 0 -9 -6 -11 -6 -2 -7 -14 -1
-34 5 -17 6 -37 2 -43 -4 -7 -5 -31 -2 -54 4 -23 4 -55 1 -72 -3 -16 -3 -49 1
-72 3 -25 2 -43 -4 -43 -5 0 -7 -7 -3 -15 3 -8 5 -52 5 -97 0 -46 1 -92 1
-103 1 -22 1 -21 -2 -85 -2 -48 8 -57 26 -25 6 10 17 25 24 33 6 7 12 17 12
21 0 4 8 16 18 27 10 10 23 27 28 36 33 59 266 295 364 368 175 132 480 252
705 278 85 10 349 9 450 -2 129 -14 302 -69 455 -145 84 -42 237 -133 250
-150 3 -3 23 -19 45 -36 50 -37 106 -88 159 -143 23 -24 50 -54 61 -65 32 -33
97 -125 139 -194 20 -35 41 -65 46 -68 4 -3 9 310 9 695 l2 700 -1399 0 -1399
0 6 -42z"/>
<path d="M8085 11225 c-38 -12 -122 -38 -130 -40 -5 -1 -23 -7 -38 -13 -16 -7
-31 -12 -34 -12 -3 0 -19 -6 -36 -14 -18 -7 -77 -33 -132 -56 -85 -36 -164
-74 -365 -175 -19 -10 -70 -41 -113 -69 -108 -70 -121 -99 -121 -266 1 -145 4
-167 37 -223 27 -45 128 -147 146 -147 6 0 11 -4 11 -9 0 -17 136 -53 206 -53
38 0 74 1 79 2 6 1 15 3 20 4 63 11 166 62 193 95 19 25 114 217 151 306 18
44 38 91 44 105 6 14 11 27 12 30 1 3 7 19 14 35 21 49 110 317 116 350 26
132 10 173 -60 150z"/>
<path d="M6878 10703 c-10 -2 -18 -8 -18 -13 0 -4 -12 -13 -27 -19 -57 -24
-138 -113 -167 -181 -39 -94 -40 -95 -84 -205 -21 -55 -43 -109 -47 -120 -5
-11 -9 -22 -9 -25 -1 -3 -15 -39 -31 -80 -16 -41 -30 -77 -31 -80 0 -3 -6 -18
-13 -35 -7 -16 -14 -38 -16 -48 -2 -10 -7 -27 -10 -37 -27 -86 8 -146 78 -133
45 9 90 61 178 208 46 77 89 149 95 160 6 11 39 70 74 130 35 61 80 141 102
178 21 38 37 76 34 85 -3 9 -8 42 -11 72 -6 60 -11 80 -27 123 -10 27 -27 32
-70 20z"/>
<path d="M7043 10603 c-11 -27 -23 -68 -27 -92 -5 -35 -145 -326 -176 -366 -4
-5 -25 -41 -45 -80 -21 -38 -44 -77 -51 -86 -8 -8 -14 -19 -14 -22 0 -4 -22
-42 -48 -85 -75 -121 -86 -147 -70 -179 7 -14 22 -32 33 -39 24 -16 6 -24 349
162 183 99 270 144 280 144 5 0 17 6 25 13 19 16 101 48 130 50 12 1 21 6 21
11 0 5 3 7 6 3 7 -6 76 27 111 54 22 16 21 17 -55 18 -42 0 -84 2 -92 4 -162
38 -280 142 -330 293 -21 62 -28 167 -16 222 9 39 -11 24 -31 -25z"/>
<path d="M7380 9975 c-25 -7 -60 -19 -77 -29 -18 -9 -33 -14 -33 -10 0 4 -6 2
-12 -4 -7 -5 -53 -31 -103 -57 -49 -27 -107 -59 -127 -71 -20 -13 -43 -25 -50
-26 -7 -2 -15 -5 -18 -8 -5 -6 -58 -37 -130 -78 -125 -70 -196 -132 -195 -172
1 -24 38 -80 55 -82 8 -1 24 -2 35 -3 35 -2 604 204 721 262 64 31 108 78 148
157 32 64 31 96 -4 113 -36 17 -157 22 -210 8z"/>
<path d="M8750 9618 c-120 -178 -322 -374 -501 -485 -74 -45 -253 -133 -272
-133 -7 0 -17 -4 -22 -9 -12 -12 -186 -59 -240 -65 -22 -2 -40 -5 -40 -6 0
-11 -353 -18 -429 -8 -157 21 -388 81 -423 110 -7 6 -13 8 -13 4 0 -19 -250
126 -350 203 -65 50 -267 257 -275 281 -3 11 -10 20 -14 20 -4 0 -25 27 -47
60 -21 33 -42 60 -46 60 -5 0 -8 6 -8 14 0 7 -6 19 -14 25 -19 16 -24 -1 -16
-53 3 -23 3 -54 0 -71 -3 -16 -3 -49 1 -72 3 -23 2 -44 -2 -45 -4 -2 -4 -23 0
-48 4 -25 4 -58 1 -75 -3 -16 -3 -49 1 -72 3 -23 2 -44 -2 -45 -4 -2 -4 -23 0
-48 4 -25 4 -59 1 -76 -4 -16 -4 -39 0 -50 4 -10 4 -29 -1 -41 -5 -12 -4 -25
0 -27 5 -3 6 -20 2 -38 -4 -18 -4 -52 -1 -75 4 -23 3 -44 -1 -45 -4 -2 -4 -23
0 -48 4 -25 4 -58 1 -75 -3 -16 -3 -49 1 -72 3 -23 2 -44 -2 -45 -4 -2 -4 -23
0 -48 4 -25 4 -58 1 -75 -4 -16 -3 -39 0 -50 4 -11 4 -28 1 -39 -4 -10 -4 -40
-1 -66 3 -26 3 -56 -1 -66 -3 -11 -3 -28 1 -40 5 -11 5 -27 0 -34 -4 -7 -4
-24 0 -39 4 -14 4 -35 0 -46 -4 -11 -4 -29 0 -41 5 -11 5 -36 1 -55 -4 -19 -4
-53 -1 -76 4 -23 3 -44 -1 -45 -4 -2 -4 -23 0 -48 3 -25 4 -61 1 -80 -3 -19
-3 -52 1 -72 4 -22 2 -38 -3 -38 -5 0 -7 -9 -3 -20 3 -10 6 -43 5 -72 0 -29 0
-62 0 -73 1 -11 1 -27 1 -35 -1 -8 0 -37 0 -65 1 -27 1 -56 0 -62 0 -7 -1 -24
-1 -38 0 -32 0 -52 -1 -67 0 -7 0 -26 0 -43 1 -16 1 -38 1 -47 0 -10 0 -47 1
-84 1 -36 -1 -68 -4 -71 -3 -3 -2 -15 3 -27 4 -13 5 -29 0 -36 -4 -7 -4 -24 0
-39 4 -14 4 -35 0 -46 -4 -11 -4 -29 0 -41 5 -11 5 -36 1 -55 -4 -19 -4 -53
-1 -76 4 -23 3 -44 -1 -45 -4 -2 -4 -23 0 -48 3 -25 4 -61 1 -80 -3 -19 -3
-52 1 -72 4 -22 2 -38 -3 -38 -5 0 -7 -9 -3 -20 3 -10 6 -41 5 -67 0 -26 0
-57 0 -68 1 -42 0 -65 -2 -77 -4 -15 190 -20 199 -5 3 5 5 312 5 683 l0 674
139 0 c137 0 139 0 140 -22 0 -13 1 -320 2 -683 l2 -660 220 -1 c121 0 225 1
230 3 7 2 10 238 9 683 l0 679 155 3 c86 2 181 2 211 0 52 -3 57 -5 90 -50 19
-25 42 -54 50 -63 17 -18 30 -35 80 -99 19 -25 38 -47 41 -50 3 -3 37 -43 74
-90 37 -47 71 -87 74 -90 3 -3 28 -34 56 -70 27 -36 54 -69 60 -75 6 -5 23
-26 37 -45 15 -19 37 -47 50 -61 13 -15 95 -117 183 -227 88 -111 163 -201
166 -201 4 -1 6 24 5 55 0 31 2 58 6 60 4 3 3 15 -2 28 -5 13 -6 26 -3 29 3 3
6 215 8 472 1 256 4 467 6 470 4 4 121 7 222 6 l57 -1 0 -532 c0 -293 0 -601
0 -683 l0 -151 110 0 110 0 0 1823 c0 1003 -1 1823 -2 1823 -2 -1 -37 -51 -78
-112z"/>
<path d="M5 8871 c-8 -8 -6 -1381 3 -1382 4 -1 62 -2 130 -3 l122 -1 1 95 c0
52 1 165 2 250 l2 155 145 2 c80 1 307 4 505 7 346 4 395 7 395 27 0 5 4 9 9
9 21 0 133 73 170 110 68 69 96 153 93 285 -2 96 -11 160 -27 198 -14 34 -106
133 -146 156 -100 60 -117 66 -199 76 -79 10 -1197 25 -1205 16z m1065 -254
c116 -7 156 -20 196 -65 67 -73 70 -178 8 -248 -57 -64 -113 -71 -597 -73
l-417 -2 6 192 c2 106 6 195 8 198 5 7 662 5 796 -2z"/>
<path d="M3667 8872 c-14 -3 -29 -29 -32 -57 0 -5 -7 -30 -15 -55 -7 -25 -14
-47 -15 -50 0 -3 -9 -32 -19 -65 -10 -33 -20 -69 -22 -80 -2 -11 -8 -31 -13
-45 -5 -14 -19 -56 -30 -95 -11 -38 -38 -133 -61 -210 -44 -153 -49 -168 -56
-204 -3 -14 -8 -29 -12 -35 -4 -6 -7 -13 -8 -16 0 -3 -7 -25 -14 -50 -7 -25
-14 -47 -15 -50 -7 -33 -38 -110 -45 -110 -4 0 -10 10 -13 23 -2 12 -17 63
-32 112 -15 50 -36 119 -46 155 -11 36 -22 73 -24 83 -2 9 -6 21 -9 25 -3 5
-7 20 -9 33 -3 14 -15 56 -27 94 -12 39 -23 77 -25 85 -31 119 -136 473 -145
489 -7 13 -37 15 -164 16 l-156 0 -9 -27 c-6 -16 -7 -28 -4 -28 3 0 0 -6 -6
-13 -6 -8 -8 -17 -4 -20 3 -4 2 -7 -3 -7 -5 0 -10 -8 -10 -17 -1 -17 -24 -98
-94 -333 -17 -58 -33 -112 -35 -120 -2 -8 -12 -46 -23 -85 -12 -38 -30 -104
-42 -145 -12 -41 -23 -79 -24 -85 -2 -5 -5 -14 -6 -20 -2 -5 -11 -34 -21 -62
-10 -29 -15 -53 -12 -53 3 0 0 -7 -7 -15 -7 -8 -9 -15 -4 -15 4 0 3 -5 -4 -12
-7 -7 -12 -22 -12 -35 0 -44 -20 -27 -37 32 -6 21 -116 384 -143 475 -16 52
-31 104 -33 115 -2 11 -7 27 -10 35 -3 8 -11 35 -18 60 -7 25 -14 50 -15 55
-2 6 -12 42 -23 80 -51 179 -64 221 -72 231 -5 6 -60 11 -139 12 -105 1 -132
-2 -136 -13 -5 -11 80 -290 113 -375 3 -8 7 -19 9 -25 2 -10 203 -606 279
-832 28 -81 44 -115 61 -123 14 -8 76 -13 165 -14 l144 -1 13 40 c8 22 15 47
17 55 2 8 13 47 25 85 11 39 22 78 25 89 2 10 12 44 21 75 10 31 18 62 20 69
2 13 27 96 47 162 12 37 17 56 21 80 2 8 6 22 9 30 5 14 87 294 92 315 1 6 5
19 9 30 5 11 12 31 16 45 22 68 21 67 37 20 8 -25 16 -54 18 -65 2 -11 10 -40
18 -65 9 -25 23 -72 32 -105 21 -76 25 -90 75 -260 22 -77 43 -151 46 -165 3
-14 12 -45 20 -70 9 -25 18 -54 20 -65 15 -72 85 -289 95 -295 7 -5 31 -7 53
-5 23 2 87 5 144 6 57 2 110 8 117 13 12 9 70 163 90 236 2 8 35 107 74 220
39 113 73 212 75 220 3 8 25 76 51 150 46 136 63 187 132 403 42 134 41 136
-37 138 -152 4 -178 4 -193 1z"/>
<path d="M4239 8875 c-1 0 -3 -312 -3 -692 -1 -476 1 -693 9 -694 28 -3 231
-4 240 -2 7 2 10 87 10 241 -1 130 1 243 3 249 3 10 82 13 345 12 381 -1 350
4 395 -71 9 -16 20 -28 24 -28 4 0 8 -6 8 -12 0 -7 12 -26 26 -43 14 -16 35
-45 46 -65 12 -19 25 -37 28 -40 9 -7 144 -199 155 -220 11 -23 28 -26 135
-24 197 4 182 2 169 25 -12 23 -111 166 -128 186 -6 7 -11 15 -11 18 0 3 -5
11 -10 18 -75 89 -171 247 -161 264 4 8 33 25 64 37 30 13 64 31 74 40 74 69
107 108 131 156 24 50 27 66 27 171 1 164 -14 222 -75 291 -49 56 -164 138
-192 138 -8 0 -18 3 -22 7 -3 4 -13 8 -21 9 -7 1 -33 5 -57 8 -51 8 -1188 28
-1209 21z m958 -258 c3 -3 15 -2 28 3 13 5 25 7 28 4 2 -3 36 -7 73 -10 111
-7 139 -18 181 -69 59 -71 58 -183 -3 -246 -28 -29 -116 -65 -133 -55 -5 4
-12 2 -15 -2 -3 -5 -198 -10 -434 -11 l-429 -2 3 83 c1 46 3 130 5 188 1 58 6
110 10 115 8 10 675 12 686 2z"/>
<path d="M9628 7745 c-2 -2 -30 -6 -63 -9 -74 -7 -139 -25 -230 -61 -199 -80
-286 -175 -315 -345 -11 -65 -9 -147 4 -168 4 -7 5 -12 1 -12 -12 0 45 -98 77
-129 66 -67 241 -132 423 -156 22 -3 51 -8 65 -10 34 -6 133 -16 200 -20 86
-6 211 -16 255 -21 22 -2 56 -6 75 -8 76 -8 145 -19 152 -22 4 -3 26 -7 49
-10 78 -11 154 -68 181 -134 35 -86 -14 -195 -118 -268 -17 -12 -34 -19 -38
-15 -3 3 -6 2 -6 -4 0 -11 -11 -15 -80 -34 -73 -20 -131 -24 -330 -23 -212 0
-331 9 -362 25 -10 6 -24 9 -31 8 -6 -1 -19 0 -27 3 -8 3 -44 16 -80 29 -63
21 -100 37 -193 78 -90 41 -144 59 -154 53 -5 -4 -38 -43 -72 -87 -59 -76 -60
-81 -42 -93 11 -8 30 -23 43 -34 50 -44 303 -152 404 -173 11 -2 39 -8 64 -14
127 -28 206 -35 425 -36 229 0 331 11 465 52 30 9 58 17 63 19 4 1 9 3 12 4 3
1 8 3 13 4 17 4 116 58 156 86 89 60 164 171 182 267 10 56 12 193 2 199 -4 3
-8 13 -8 24 0 33 -51 118 -99 162 -63 59 -171 114 -261 132 -14 3 -43 10 -65
15 -50 12 -132 25 -225 36 -25 2 -61 7 -80 9 -38 5 -143 15 -230 21 -89 7
-233 23 -271 30 -36 7 -93 19 -99 20 -3 1 -18 7 -33 13 -16 7 -32 12 -37 12
-13 0 -69 50 -81 71 -47 89 16 190 151 243 55 22 67 24 155 32 126 10 387 5
465 -10 102 -19 344 -93 375 -115 6 -4 29 -13 52 -21 l43 -13 56 59 c30 32 62
72 70 87 14 27 14 29 -13 50 -36 28 -76 50 -154 82 -35 14 -73 30 -84 35 -50
23 -207 59 -285 65 -25 2 -67 7 -95 11 -47 6 -411 14 -417 9z"/>
<path d="M15650 7493 c-126 -19 -130 -20 -190 -38 -66 -20 -240 -104 -240
-116 0 -5 -5 -9 -11 -9 -17 0 -107 -84 -161 -150 -104 -129 -148 -311 -123
-514 19 -160 123 -319 281 -432 59 -42 214 -129 214 -119 0 2 15 -2 34 -10 72
-30 151 -39 356 -39 226 -1 292 7 405 46 133 45 254 118 355 213 80 75 87 60
-61 138 -69 36 -89 43 -105 34 -10 -6 -21 -13 -24 -17 -14 -19 -132 -91 -185
-113 -57 -23 -137 -51 -142 -49 -2 0 -17 -4 -35 -9 -135 -38 -344 -25 -483 31
-93 38 -205 109 -227 144 -3 6 -16 22 -28 36 -26 30 -66 107 -76 146 -17 63
-9 188 16 255 13 35 29 71 37 80 7 8 13 20 13 25 1 14 60 77 110 117 57 45
171 91 273 110 76 14 302 16 357 3 14 -3 37 -8 52 -11 33 -6 128 -43 143 -55
5 -5 14 -8 18 -8 5 0 50 -28 101 -61 l92 -61 99 33 c54 18 103 41 109 50 8 13
0 25 -40 64 -134 127 -279 218 -394 249 -8 2 -39 10 -69 19 -112 31 -331 39
-471 18z"/>
<path d="M11199 7461 c0 -3 -2 -312 -2 -685 -2 -472 1 -683 9 -690 6 -7 57
-11 130 -10 119 0 119 0 121 25 1 13 4 127 6 252 3 126 7 231 10 233 2 3 105
7 228 9 820 17 805 16 903 79 227 145 258 465 65 664 -78 81 -140 107 -274
118 -95 7 -1195 12 -1196 5z m1111 -246 c30 -3 64 -8 75 -9 52 -7 107 -60 129
-124 21 -61 1 -123 -61 -189 l-48 -51 -472 1 -473 0 0 31 c-6 355 -6 345 15
348 40 6 782 0 835 -7z"/>
<path d="M13631 7456 c-12 -14 -64 -108 -93 -166 -13 -25 -26 -46 -30 -48 -5
-2 -8 -8 -8 -14 0 -5 -16 -36 -35 -69 -19 -32 -32 -59 -28 -59 3 0 -1 -8 -9
-17 -14 -17 -66 -111 -142 -258 -17 -33 -33 -62 -36 -65 -3 -3 -19 -32 -35
-65 -17 -33 -32 -62 -36 -65 -3 -3 -18 -30 -34 -60 -16 -30 -41 -77 -56 -105
-16 -27 -36 -66 -45 -85 -9 -19 -21 -41 -27 -49 -6 -7 -12 -20 -13 -29 -2 -8
-6 -18 -11 -21 -4 -3 -17 -24 -28 -46 -11 -22 -33 -62 -48 -88 -16 -26 -27
-51 -24 -54 12 -11 112 -17 237 -14 l46 1 69 135 c39 74 75 142 82 151 10 14
28 16 100 14 85 -2 590 -8 763 -9 l85 -1 31 -58 c97 -181 117 -218 125 -226
12 -14 259 -9 273 5 3 2 -3 20 -13 39 -30 60 -163 315 -171 325 -4 6 -40 73
-81 150 -40 77 -85 161 -99 186 -14 26 -54 100 -89 165 -35 66 -78 144 -94
174 -17 30 -39 73 -50 95 -11 22 -26 48 -35 58 -8 9 -12 17 -9 17 4 0 -7 23
-23 50 -17 28 -30 54 -30 58 0 4 -9 18 -20 32 -19 25 -20 25 -185 26 -107 0
-169 -3 -174 -10z m225 -314 c10 -21 31 -58 45 -83 41 -71 81 -144 139 -254
29 -55 56 -104 60 -110 4 -5 10 -22 14 -36 6 -25 4 -27 -37 -31 -38 -4 -546
-1 -574 3 -7 1 -13 8 -13 15 0 11 111 233 150 299 10 17 30 53 45 80 15 28 41
74 58 104 16 30 37 62 46 73 15 18 16 18 32 -3 8 -11 24 -37 35 -57z"/>
<path d="M17039 7460 c0 -3 -2 -313 -2 -688 -2 -599 0 -685 13 -691 19 -8
1458 -6 1467 2 3 4 6 58 6 119 0 112 0 113 -24 115 -13 1 -285 4 -603 7 -318
3 -582 8 -585 11 -3 4 -6 41 -7 83 -1 42 -2 117 -4 165 -1 48 0 90 3 93 3 3
188 6 411 6 l406 -1 1 57 c1 108 -3 177 -11 182 -4 3 -189 5 -409 4 -278 0
-401 3 -402 10 -1 14 -1 256 0 276 1 13 73 15 591 15 325 0 590 2 591 5 1 7 1
170 0 205 l-1 30 -720 0 c-396 0 -720 -2 -721 -5z"/>
<path d="M7277 7183 c-2 -5 -6 -46 -7 -93 -4 -132 -7 -984 -3 -995 2 -7 157
-10 456 -9 248 1 456 2 461 3 5 0 0 9 -10 19 -10 9 -41 44 -67 77 -56 70 -98
121 -112 138 -6 7 -60 73 -120 147 -60 74 -123 151 -139 171 -17 19 -44 53
-61 74 -16 21 -35 43 -40 49 -6 6 -24 29 -40 51 -17 21 -37 46 -45 55 -9 9
-29 34 -45 55 -17 22 -32 42 -35 45 -3 3 -45 53 -93 113 -49 59 -90 107 -92
107 -2 0 -6 -3 -8 -7z"/>
</g>
</svg>
