<svg width="2771" height="351" viewBox="0 0 2771 351" fill="none" xmlns="http://www.w3.org/2000/svg">
<g filter="url(#filter0_d_6488_213)">
<path d="M2529.84 197.932V4.30273H2687.16C2740.14 4.30273 2766.23 24.7414 2766.23 63.7362C2766.23 90.3603 2751.44 108.11 2725.89 115.909C2751.17 117.253 2766.23 131.238 2766.23 155.172V197.932H2703.03V165.661C2703.03 148.18 2698.19 143.071 2680.98 143.071H2593.04V197.932H2529.84ZM2593.04 93.5874H2672.64C2690.12 93.5874 2702.49 90.3603 2702.49 73.6866C2702.49 56.744 2690.12 53.7858 2672.64 53.7858H2593.04V93.5874Z" fill="white"/>
<path d="M2300.57 197.932V4.30273H2497.96V51.9033H2363.76V79.0652H2492.58V122.632H2363.76V150.332H2497.96V197.932H2300.57Z" fill="white"/>
<path d="M2044.44 57.5508V4.30273H2274.11V57.5508H2191.01V197.932H2127.81V57.5508H2044.44Z" fill="white"/>
<path d="M1791.01 57.5508V4.30273H2020.67V57.5508H1937.57V197.932H1874.38V57.5508H1791.01Z" fill="white"/>
<path d="M1569.68 197.932V4.30273H1767.07V51.9033H1632.87V79.0652H1761.69V122.632H1632.87V150.332H1767.07V197.932H1569.68Z" fill="white"/>
<path d="M1351.96 197.932V4.30273H1415.16V144.684H1543.7V197.932H1351.96Z" fill="white"/>
<path d="M1211.69 203.311C1133.97 203.311 1089.33 185.024 1086.64 133.927H1152.52C1152.52 147.911 1167.05 157.055 1209 157.055C1252.03 157.055 1259.83 151.139 1259.83 141.188C1259.83 126.935 1240.19 126.397 1197.43 123.708C1121.6 119.405 1089.86 100.849 1089.86 59.4335C1089.86 19.9008 1132.08 0 1198.51 0C1274.35 0 1314.96 22.8591 1317.38 65.8878H1251.76C1251.76 51.3656 1234.28 45.987 1197.97 45.987C1163.55 45.987 1155.48 51.3656 1155.48 59.4335C1155.48 72.0732 1173.77 73.6868 1216.26 76.9139C1281.88 81.7547 1325.45 88.4779 1325.45 139.037C1325.45 187.713 1282.95 203.311 1211.69 203.311Z" fill="white"/>
<path d="M724.372 197.932L660.367 4.30273H724.641L771.435 156.517L828.448 4.30273H912.085L969.099 156.517L1015.89 4.30273H1080.17L1016.16 197.932H924.994L870.401 54.8615L815.809 197.932H724.372Z" fill="white"/>
<path d="M445.107 197.932V4.30273H642.502V51.9033H508.306V79.0652H637.123V122.632H508.306V150.332H642.502V197.932H445.107Z" fill="white"/>
<g filter="url(#filter1_d_6488_213)">
<path d="M155.167 123.657V4.30273H246.604L347.452 137.423V4.30273H410.651V197.932H319.215L218.366 64.543V115.038L155.167 123.657Z" fill="white"/>
<path d="M246.852 3.80273L247.002 4.00098L346.953 135.935V3.80273H411.151V198.433H318.966L318.816 198.233L218.866 66.0322V115.475L218.433 115.534L155.235 124.152L154.667 124.23V3.80273H246.852Z" stroke="white"/>
</g>
</g>
<g clip-path="url(#clip0_6488_213)">
<path d="M154.318 219.64V176.997L156.602 180.267C163.997 190.867 175.738 196.609 188.606 195.924C194.856 195.59 198.076 194.742 203.594 191.968C208.747 189.378 214.343 184.406 217.595 179.524L219.649 176.444V262.282H214.48V230.119H207.913L207.788 243.424L207.665 256.732L196.913 243.424L186.161 230.119H176.408V262.282H165.596V230.119H159.017V262.282H154.318V219.64ZM182.987 248.944C182.987 241.607 183.166 235.808 183.384 236.054C183.602 236.301 187.13 240.654 191.219 245.729C195.311 250.799 200.016 256.6 201.675 258.618L204.691 262.282H182.987V248.944ZM168.947 182.878C167.479 181.401 168.185 180.162 171.649 178.125C182.216 171.916 185.073 170.52 187.207 170.53C191.825 170.545 192.295 171.24 190.05 174.759C188.663 176.937 188.601 176.97 180.297 180.071C169.369 184.154 170.047 183.985 168.947 182.878ZM168.041 177.996C167.222 177.171 167.338 176.401 168.58 174.416C172.397 168.301 177.397 158.942 177.218 158.251C177.101 157.803 177.385 156.711 177.846 155.821L178.686 154.205L178.426 156.211C177.645 162.212 182.413 167.681 188.424 167.687H190.743L189.324 168.56C188.543 169.038 187.154 169.573 186.236 169.745C185.316 169.919 181.148 171.973 176.969 174.311C172.794 176.651 169.204 178.564 168.992 178.564C168.779 178.564 168.352 178.309 168.041 177.996ZM163.199 175.568C162.778 174.642 163.232 173.114 166.03 165.991C167.862 161.328 169.518 157.282 169.712 157C169.903 156.714 171.09 155.697 172.348 154.737C175.122 152.623 175.699 152.908 176.16 156.632L176.488 159.27L172.397 166.433C170.145 170.373 167.79 174.29 167.162 175.135C165.764 177.015 163.943 177.214 163.199 175.568ZM184.356 165.639C183.214 165.034 181.648 163.629 180.874 162.522C179.597 160.7 179.463 160.158 179.463 156.798C179.463 153.79 179.648 152.84 180.44 151.756C181.531 150.261 189.653 145.972 196.384 143.337C201.765 141.228 203.567 140.852 203.916 141.77C204.517 143.343 201.642 152.103 197.804 160.396C195.993 164.309 195.622 164.79 193.718 165.717C190.834 167.121 187.088 167.091 184.356 165.639ZM218.393 139.391C214.017 131.671 205.235 125.168 195.915 122.735C190.693 121.372 182.766 121.384 177.595 122.762C173.882 123.751 168.633 126.128 165.859 128.077C163.04 130.06 157.911 135.326 156.13 138.073L154.318 140.867V108.082H219.649V124.638C219.649 133.744 219.597 141.192 219.531 141.189C219.466 141.186 218.955 140.374 218.393 139.384V139.391Z" fill="white"/>
<path d="M239.978 262.879C233.791 262.368 227.672 260.374 223.75 257.594L222.45 256.67L223.96 254.7C224.79 253.614 225.529 252.643 225.604 252.54C225.679 252.438 227.388 253.109 229.403 254.035C235.321 256.76 238.355 257.407 245.263 257.428C249.962 257.437 251.938 257.248 253.818 256.593C259.545 254.598 260.974 249.006 256.371 246.612C254.93 245.862 249.866 245.125 243.147 244.687C232.153 243.97 226.811 242.244 224.881 238.787C223.042 235.497 223.932 230.169 226.752 227.577C228.509 225.961 232.299 224.25 235.501 223.621C240.083 222.721 251.02 223.256 255.133 224.58C258.807 225.762 262.651 227.6 263.15 228.413C263.336 228.71 262.674 229.754 261.641 230.795L259.802 232.642L256.992 231.493C251.75 229.352 248.389 228.686 242.677 228.672C239.707 228.662 236.383 228.915 235.297 229.234C232.586 230.028 230.458 231.908 230.458 233.508C230.458 236.857 233.322 238.02 243.383 238.772C254.843 239.626 259.907 240.815 262.914 243.363C265.544 245.588 266.525 248.933 265.691 252.847C264.092 260.343 254.517 264.079 239.978 262.876V262.879ZM376.016 262.187C370.307 260.608 365.417 256.724 363.336 252.122C361.832 248.789 361.89 242.707 363.456 239.486C366.747 232.714 374.022 228.842 383.447 228.842C388.561 228.842 391.679 229.532 395.613 231.535C397.756 232.63 402.481 236.616 402.481 237.335C402.481 237.512 401.304 238.029 399.864 238.487L397.245 239.317L394.776 237.605C391.52 235.35 388.496 234.459 383.917 234.417C376.931 234.348 372.106 236.694 369.85 241.248C366.099 248.828 371.344 256.192 381.367 257.42C386.25 258.018 392.4 256.309 396.043 253.344L397.358 252.272L399.947 253.635L402.533 255.001L400.799 256.787C398.653 259.001 394.6 261.215 390.947 262.172C387.56 263.06 379.203 263.069 376.016 262.19V262.187ZM275.109 246.106V229.787H289.508C299.536 229.787 304.493 229.964 305.84 230.368C308.809 231.261 311.546 234.296 312.255 237.473C313.337 242.349 311.502 246.617 307.362 248.846C305.551 249.824 304.654 249.905 293.438 250.125L281.455 250.363L281.193 262.425H275.109V246.106ZM304.755 243.068C306.983 240.827 306.531 237.605 303.79 236.18C302.684 235.602 300.353 235.464 291.818 235.464H281.219V244.452H303.381L304.755 243.068ZM314.721 262.07C314.826 261.874 318.786 254.532 323.527 245.751L332.144 229.787L336.174 229.797L340.207 229.805L348.783 245.784C353.502 254.573 357.361 261.911 357.361 262.091C357.361 262.272 355.899 262.419 354.109 262.419H350.859L347.195 255.561L336.153 255.434L325.111 255.305L323.258 258.857L321.405 262.406L317.97 262.413C316.081 262.413 314.62 262.256 314.721 262.064V262.07ZM343.731 249.385C343.731 248.856 336.437 235.479 336.147 235.47C335.804 235.46 328.69 248.594 328.69 249.235C328.69 249.463 332.073 249.653 336.21 249.653C340.347 249.653 343.731 249.533 343.731 249.385ZM411.883 246.106V229.787H445.722V235.464H417.992V242.56H437.263V248.236H417.956L418.091 252.372L418.229 256.511L432.445 256.637L446.664 256.76V262.425H411.883V246.106ZM12.8413 212.96V196.608L27.5296 196.762C42.1199 196.913 42.2332 196.921 44.5441 198.098C45.8236 198.747 47.5147 200.098 48.3013 201.096C49.5685 202.7 49.7506 203.329 49.8884 206.535C50.095 211.384 48.9441 213.682 45.2611 215.785L42.6877 217.253L30.8177 217.409L18.9508 217.563V229.315H12.8413V212.96ZM41.5131 210.987C44.4393 209.516 44.5258 205.326 41.6715 203.443C40.5237 202.685 39.2022 202.592 29.7839 202.592H19.1872L18.9179 211.814H29.3921C38.4224 211.814 40.0929 211.7 41.5131 210.987ZM63.0853 228.012C61.991 225.128 52.7939 197.478 52.7939 197.072C52.7939 196.834 54.3006 196.698 56.1448 196.777L59.4987 196.915L63.3125 210.238C65.4107 217.566 67.2343 223.458 67.3628 223.335C67.4914 223.212 69.2911 217.217 71.3595 210.012L75.1167 196.915H82.6342L86.4006 210.004C88.4689 217.201 90.2741 223.206 90.4118 223.341C90.5465 223.48 91.9782 218.973 93.5867 213.327C95.1975 207.681 96.946 201.626 97.4725 199.872L98.429 196.678H101.696C104.004 196.678 104.96 196.852 104.951 197.27C104.945 197.595 102.563 204.884 99.6541 213.469L94.3695 229.077L90.5258 229.216L86.6845 229.352L85.7455 226.142C85.2321 224.376 83.5104 218.353 81.9195 212.759C80.3324 207.167 78.9757 202.534 78.9068 202.462C78.838 202.393 77.3466 207.395 75.595 213.577C73.8403 219.761 72.1094 225.832 71.7475 227.068L71.0871 229.315H67.333C63.6714 229.315 63.5666 229.279 63.0853 228.015V228.012ZM112.015 212.96V196.608L126.703 196.762C141.292 196.913 141.406 196.921 143.717 198.098C144.996 198.747 146.688 200.098 147.474 201.096C148.742 202.703 148.927 203.334 149.073 206.58C149.208 209.594 149.062 210.596 148.251 212.199C147.345 213.983 144.431 216.534 143.277 216.552C143.014 216.552 142.5 216.747 142.136 216.982C141.609 217.316 142.324 218.606 145.543 223.139C147.782 226.292 149.614 228.972 149.614 229.093C149.614 229.216 148.06 229.315 146.162 229.315H142.71L138.543 223.401L134.376 217.49H118.124V229.315H112.015V212.96ZM140.686 210.987C143.613 209.516 143.699 205.326 140.844 203.443C139.696 202.685 138.375 202.592 128.956 202.592H118.36L118.091 211.814H128.565C137.595 211.814 139.266 211.7 140.686 210.987Z" fill="white"/>
</g>
<defs>
<filter id="filter0_d_6488_213" x="150.167" y="0" width="2620.06" height="211.311" filterUnits="userSpaceOnUse" color-interpolation-filters="sRGB">
<feFlood flood-opacity="0" result="BackgroundImageFix"/>
<feColorMatrix in="SourceAlpha" type="matrix" values="0 0 0 0 0 0 0 0 0 0 0 0 0 0 0 0 0 0 127 0" result="hardAlpha"/>
<feOffset dy="4"/>
<feGaussianBlur stdDeviation="2"/>
<feComposite in2="hardAlpha" operator="out"/>
<feColorMatrix type="matrix" values="0 0 0 0 0 0 0 0 0 0 0 0 0 0 0 0 0 0 0.25 0"/>
<feBlend mode="normal" in2="BackgroundImageFix" result="effect1_dropShadow_6488_213"/>
<feBlend mode="normal" in="SourceGraphic" in2="effect1_dropShadow_6488_213" result="shape"/>
</filter>
<filter id="filter1_d_6488_213" x="150.167" y="3.30273" width="265.483" height="203.63" filterUnits="userSpaceOnUse" color-interpolation-filters="sRGB">
<feFlood flood-opacity="0" result="BackgroundImageFix"/>
<feColorMatrix in="SourceAlpha" type="matrix" values="0 0 0 0 0 0 0 0 0 0 0 0 0 0 0 0 0 0 127 0" result="hardAlpha"/>
<feOffset dy="4"/>
<feGaussianBlur stdDeviation="2"/>
<feComposite in2="hardAlpha" operator="out"/>
<feColorMatrix type="matrix" values="0 0 0 0 0 0 0 0 0 0 0 0 0 0 0 0 0 0 0.25 0"/>
<feBlend mode="normal" in2="BackgroundImageFix" result="effect1_dropShadow_6488_213"/>
<feBlend mode="normal" in="SourceGraphic" in2="effect1_dropShadow_6488_213" result="shape"/>
</filter>
<clipPath id="clip0_6488_213">
<rect width="433.823" height="155.016" fill="white" transform="translate(12.8413 108.082)"/>
</clipPath>
</defs>
</svg>
